<?xml version="1.0" encoding="UTF-8"?>
<svg width="483px" height="396px" viewBox="0 0 483 396" version="1.1" xmlns="http://www.w3.org/2000/svg" xmlns:xlink="http://www.w3.org/1999/xlink">
    <title>Flower Motif (Solid)</title>
    <defs>
        <rect id="path-1" x="0" y="0" width="483" height="396"></rect>
        <polygon id="path-3" points="0 0 174.739461 0 174.739461 161.623972 0 161.623972"></polygon>
        <polygon id="path-5" points="0 0 157.746216 0 157.746216 165.679788 0 165.679788"></polygon>
    </defs>
    <g id="Page-1" stroke="none" stroke-width="1" fill="none" fill-rule="evenodd">
        <g id="CC---Who-We-Are---Work2" transform="translate(-958, -2180)">
            <g id="Flower-Motif-(Solid)" transform="translate(958, 2180)">
                <mask id="mask-2" fill="white">
                    <use xlink:href="#path-1"></use>
                </mask>
                <g id="Mask"></g>
                <g id="Group-37" mask="url(#mask-2)">
                    <g transform="translate(72, 54)">
                        <path d="M499.915116,285.91246 C441.55544,272.760501 386.796597,281.025864 354.681502,305.919801 C368.435176,267.686457 359.37414,213.057964 328.830725,161.624325 C298.28731,213.057964 289.226274,267.686457 302.981127,305.919801 C270.864853,281.024685 216.10601,272.760501 157.746334,285.91246 C197.229342,330.852643 246.388854,356.350184 287.004934,355.08521 C253.401872,377.932553 228.620498,427.452815 223.095447,487.015062 C278.04058,463.355447 317.482322,424.486669 328.830725,385.470526 C340.179127,424.486669 379.620869,463.355447 434.567182,487.015062 C429.042131,427.452815 404.259578,377.932553 370.657695,355.08521 C411.272596,356.350184 460.432107,330.852643 499.915116,285.91246" id="Fill-1" fill="#BED630"></path>
                        <path d="M328.830961,161.62409 C298.293441,213.048296 289.230047,267.665001 302.97193,305.897166 C270.854477,281.010302 216.095634,272.762623 157.746569,285.912224 C152.287546,279.698171 147.007738,273.12455 141.967279,266.186644 C120.852765,237.127605 106.901009,206.08917 100.330137,176.869799 C130.129568,173.854138 163.990844,177.262377 198.241207,188.091877 C206.416773,190.677234 214.323515,193.603297 221.946104,196.814658 C221.117229,188.585841 220.647965,180.16722 220.57958,171.592982 C220.285995,134.333421 227.508885,99.8289806 239.967957,71.6588425 C266.730143,86.9151621 293.041931,110.377899 314.945232,140.522717 C319.985691,147.459444 324.607586,154.511704 328.830961,161.62409" id="Fill-3" fill="#65B66D"></path>
                        <path d="M157.746687,285.912342 C149.677236,287.731406 141.540579,289.946584 133.385057,292.596782 C97.945027,304.11123 67.4971154,321.882172 44.7165972,342.616903 C67.661004,363.17126 98.246865,380.701703 133.777682,391.93557 C141.953248,394.520927 150.105233,396.672444 158.186475,398.426668 C152.77815,404.683162 147.552579,411.301582 142.567536,418.278392 C121.682938,447.502479 107.976425,478.649374 101.636648,507.920617 C131.45966,510.700495 165.292638,507.024643 199.456931,495.925172 C207.612453,493.276153 215.497971,490.286429 223.094622,487.014944 C228.618493,427.464486 253.38454,377.93833 286.980528,355.086271 C246.369164,356.340635 197.221443,330.843094 157.746687,285.912342" id="Fill-5" fill="#65B66D"></path>
                        <path d="M559.343488,507.571659 C552.863402,477.458671 538.424697,445.29909 516.283227,415.327572 C511.188531,408.430928 505.856845,401.897389 500.348301,395.726956 C508.403603,393.84541 516.521396,391.565391 524.656874,388.850353 C558.731558,377.482091 588.130111,360.33833 610.464947,340.38404 C587.973297,320.607767 558.440332,303.696252 524.276039,292.596782 C516.121696,289.947763 507.987397,287.731406 499.919125,285.913521 C460.450265,330.837199 411.30726,356.346529 370.698254,355.09806 C404.285989,377.954835 429.047319,427.476275 434.570012,487.016123 C442.166662,490.287608 450.049822,493.276153 458.205345,495.925172 C493.645374,507.43962 528.724613,510.956319 559.343488,507.571659" id="Fill-9" fill="#65B66D"></path>
                        <path d="M456.981957,186.04988 C448.846479,188.763739 440.985721,191.814767 433.41501,195.146377 C434.11301,186.904593 434.453757,178.480077 434.385372,169.90466 C434.102398,133.987881 426.880688,100.733089 414.803629,73.3268872 C389.042461,88.6044272 363.83191,111.46356 342.717397,140.522599 C337.675758,147.460505 333.053863,154.512765 328.830489,161.623972 C359.368009,213.048179 368.431403,267.664883 354.689519,305.897048 C386.808152,281.010184 441.568174,272.762505 499.918417,285.913285 C505.377441,279.700411 510.654891,273.123253 515.69535,266.186526 C537.598651,236.041707 551.78386,203.770129 558.025776,173.606448 C527.380962,170.462286 492.330021,174.25603 456.981957,186.04988" id="Fill-11" fill="#65B66D"></path>
                        <path d="M128.081079,65.213015 C98.5080256,86.6975346 89.6497868,129.375382 100.329665,176.87027 C130.129097,173.853431 163.990372,177.262849 198.241915,188.092348 C206.417481,190.676527 214.324222,193.603769 221.945633,196.81395 C221.116757,188.586313 220.647493,180.166513 220.580287,171.593454 C220.285523,134.332714 227.508413,99.8294521 239.968665,71.6581351 C198.998868,48.3015008 156.973817,44.2224601 128.081079,65.213015" id="Fill-15" fill="#BED630"></path>
                        <g id="Group-31" stroke-width="1" fill="none" transform="translate(240.0063, 0)">
                            <mask id="mask-4" fill="white">
                                <use xlink:href="#path-3"></use>
                            </mask>
                            <g id="Clip-30"></g>
                            <path d="M86.1287754,0.00200415295 C50.4187421,0.28376448 19.0700326,28.5564681 0,71.6811239 C26.7480376,86.9386224 53.0456763,110.391928 74.9383661,140.522599 C79.9800045,147.459326 84.6007204,154.512765 88.8240947,161.623972 C93.0486481,154.512765 97.669364,147.459326 102.711002,140.522599 C123.809009,111.485959 148.997157,88.6409735 174.739461,73.3634335 C155.108198,28.8264392 122.675938,-0.286829655 86.1287754,0.00200415295" id="Fill-29" fill="#008FA0" mask="url(#mask-4)"></path>
                        </g>
                        <g id="Group-36" stroke-width="1" fill="none" transform="translate(0, 176.9369)">
                            <mask id="mask-6" fill="white">
                                <use xlink:href="#path-5"></use>
                            </mask>
                            <g id="Clip-35"></g>
                            <path d="M141.966925,89.2496466 C120.868918,60.2130071 106.924237,29.1993296 100.347469,0 C51.9201505,4.90428016 14.2069031,26.7507262 3.18745679,61.5958726 C-7.5796718,95.6440734 9.59090351,134.213408 44.7161256,165.679788 C67.4978228,144.946236 97.9445554,127.174115 133.384585,115.659667 C141.541286,113.009469 149.677944,110.794291 157.746216,108.975227 C152.287192,102.761174 147.007384,96.1863736 141.966925,89.2496466" id="Fill-34" fill="#008FA0" mask="url(#mask-6)"></path>
                        </g>
                    </g>
                </g>
            </g>
        </g>
    </g>
</svg>